<svg width="1212" height="183" viewBox="0 0 1212 183" fill="none" xmlns="http://www.w3.org/2000/svg">
<path d="M0.779689 179V3.49999H78.2697C90.5097 3.49999 100.95 5.38999 109.59 9.17C118.23 12.77 124.8 18.26 129.3 25.64C133.98 33.02 136.32 42.29 136.32 53.45C136.32 61.01 135.06 67.49 132.54 72.89C130.2 78.29 126.87 82.88 122.55 86.66C118.23 90.26 113.1 93.05 107.16 95.03C101.4 97.01 95.0997 98.27 88.2597 98.81L87.4497 97.46C96.9897 97.82 105.18 98.99 112.02 100.97C118.86 102.95 124.17 106.55 127.95 111.77C131.73 116.99 133.62 124.82 133.62 135.26V179H112.02V135.26C112.02 128.06 110.76 122.48 108.24 118.52C105.9 114.38 101.85 111.5 96.0897 109.88C90.5097 108.08 82.7697 107.18 72.8697 107.18H22.3797V179H0.779689ZM22.3797 86.93H78.2697C90.5097 86.93 99.5997 83.87 105.54 77.75C111.66 71.45 114.72 63.35 114.72 53.45C114.72 43.91 111.66 36.62 105.54 31.58C99.5997 26.36 90.5097 23.75 78.2697 23.75H22.3797V86.93ZM265.542 135.53H285.792C284.352 144.35 281.112 152.27 276.072 159.29C271.212 166.13 264.732 171.62 256.632 175.76C248.712 179.72 239.532 181.7 229.092 181.7C216.492 181.7 205.152 178.73 195.072 172.79C184.992 166.67 176.982 158.39 171.042 147.95C165.282 137.33 162.402 125.27 162.402 111.77C162.402 98.27 165.192 86.21 170.772 75.59C176.532 64.97 184.362 56.6 194.262 50.48C204.162 44.36 215.322 41.3 227.742 41.3C240.882 41.3 251.952 44.27 260.952 50.21C270.132 55.97 276.882 64.52 281.202 75.86C285.702 87.02 287.502 100.79 286.602 117.17H184.002C184.902 125.99 187.332 133.73 191.292 140.39C195.252 147.05 200.472 152.27 206.952 156.05C213.432 159.65 220.812 161.45 229.092 161.45C238.272 161.45 246.012 159.11 252.312 154.43C258.792 149.57 263.202 143.27 265.542 135.53ZM228.552 61.55C217.392 61.55 208.032 64.79 200.472 71.27C192.912 77.75 187.872 86.57 185.352 97.73H264.462C263.742 85.85 259.872 76.85 252.852 70.73C246.012 64.61 237.912 61.55 228.552 61.55ZM306.084 120.14H342.534C343.254 126.26 346.044 131.84 350.904 136.88C355.944 141.74 362.514 145.61 370.614 148.49C378.714 151.19 387.804 152.54 397.884 152.54C407.064 152.54 414.624 151.55 420.564 149.57C426.504 147.59 430.914 144.8 433.794 141.2C436.674 137.6 438.114 133.28 438.114 128.24C438.114 123.38 436.314 119.69 432.714 117.17C429.114 114.47 423.444 112.31 415.704 110.69C407.964 108.89 397.794 107.09 385.194 105.29C375.294 103.85 365.934 101.87 357.114 99.35C348.294 96.65 340.464 93.23 333.624 89.09C326.964 84.95 321.654 79.91 317.694 73.97C313.914 67.85 312.024 60.65 312.024 52.37C312.024 42.11 314.904 33.11 320.664 25.37C326.604 17.63 335.334 11.6 346.854 7.27999C358.374 2.95999 372.504 0.799993 389.244 0.799993C414.444 0.799993 433.794 6.19999 447.294 17C460.974 27.62 467.634 42.29 467.274 61.01H432.174C431.454 50.39 426.954 42.74 418.674 38.06C410.574 33.38 400.314 31.04 387.894 31.04C376.374 31.04 366.834 32.75 359.274 36.17C351.894 39.59 348.204 45.44 348.204 53.72C348.204 56.96 349.104 59.84 350.904 62.36C352.704 64.7 355.764 66.77 360.084 68.57C364.404 70.37 370.254 72.08 377.634 73.7C385.014 75.32 394.194 76.94 405.174 78.56C415.434 80 424.704 81.98 432.984 84.5C441.444 86.84 448.644 89.99 454.584 93.95C460.704 97.73 465.384 102.59 468.624 108.53C471.864 114.47 473.484 121.76 473.484 130.4C473.484 141.02 470.694 150.29 465.114 158.21C459.714 165.95 451.254 171.98 439.734 176.3C428.394 180.62 413.634 182.78 395.454 182.78C382.494 182.78 371.064 181.43 361.164 178.73C351.264 175.85 342.714 172.07 335.514 167.39C328.314 162.71 322.464 157.58 317.964 152C313.464 146.42 310.224 140.84 308.244 135.26C306.444 129.68 305.724 124.64 306.084 120.14ZM541.075 106.1V149.03H675.805V179H505.165V4.31H675.535V34.28H541.075V77.75H651.235V106.1H541.075ZM848.485 161.18H831.475L931.915 4.31H967.825V179H931.915V52.1L940.555 54.53L860.365 179H820.135L739.945 55.07L748.585 52.64V179H712.675V4.31H748.585L848.485 161.18ZM1109.21 4.31C1128.83 4.31 1145.21 6.64999 1158.35 11.33C1171.49 16.01 1181.93 22.4 1189.67 30.5C1197.59 38.42 1203.17 47.6 1206.41 58.04C1209.83 68.48 1211.54 79.46 1211.54 90.98C1211.54 102.5 1209.65 113.57 1205.87 124.19C1202.27 134.81 1196.42 144.26 1188.32 152.54C1180.4 160.64 1169.87 167.12 1156.73 171.98C1143.77 176.66 1127.93 179 1109.21 179H1009.31V4.31H1109.21ZM1045.22 148.22H1108.4C1121.36 148.22 1132.07 146.69 1140.53 143.63C1149.17 140.39 1156.01 136.07 1161.05 130.67C1166.09 125.27 1169.69 119.15 1171.85 112.31C1174.01 105.47 1175.09 98.36 1175.09 90.98C1175.09 83.6 1174.01 76.58 1171.85 69.92C1169.69 63.26 1166.09 57.32 1161.05 52.1C1156.01 46.88 1149.17 42.74 1140.53 39.68C1132.07 36.62 1121.36 35.09 1108.4 35.09H1045.22V148.22Z" fill="#228BE6"/>
</svg>
